<svg width="64" height="64" viewBox="0 0 64 64" fill="none" xmlns="http://www.w3.org/2000/svg">
<path opacity="0.4" d="M51.3063 14.88H50.2397L41.2263 5.86666C40.5063 5.14666 39.333 5.14666 38.5863 5.86666C37.8663 6.58666 37.8663 7.75999 38.5863 8.50666L44.9597 14.88H19.0397L25.413 8.50666C26.133 7.78666 26.133 6.61333 25.413 5.86666C24.693 5.14666 23.5197 5.14666 22.773 5.86666L13.7863 14.88H12.7197C10.3197 14.88 5.33301 14.88 5.33301 21.7067C5.33301 24.2933 5.86634 26 6.98634 27.12C7.62634 27.7867 8.39967 28.1333 9.22634 28.32C9.99967 28.5067 10.8263 28.5333 11.6263 28.5333H52.373C53.1997 28.5333 53.973 28.48 54.7197 28.32C56.9597 27.7867 58.6663 26.1867 58.6663 21.7067C58.6663 14.88 53.6797 14.88 51.3063 14.88Z" fill="#1053D5"/>
<path d="M52.4266 28.5335H11.6266C10.8532 28.5335 9.9999 28.5068 9.22656 28.2935L12.5866 48.8001C13.3599 53.3868 15.3599 58.6668 24.2399 58.6668H39.1999C48.1866 58.6668 49.7866 54.1601 50.7466 49.1201L54.7732 28.2935C54.0266 28.4801 53.2266 28.5335 52.4266 28.5335ZM37.1199 47.7068C36.7199 48.1068 36.2132 48.2935 35.7066 48.2935C35.1999 48.2935 34.6932 48.1068 34.2932 47.7068L32.0266 45.4401L29.6799 47.7868C29.2799 48.1868 28.7732 48.3735 28.2666 48.3735C27.7599 48.3735 27.2532 48.1868 26.8532 47.7868C26.0799 47.0135 26.0799 45.7335 26.8532 44.9601L29.1999 42.6135L26.9332 40.3468C26.1599 39.5735 26.1599 38.2935 26.9332 37.5201C27.7066 36.7468 28.9866 36.7468 29.7599 37.5201L32.0266 39.7868L34.2132 37.6001C34.9866 36.8268 36.2666 36.8268 37.0399 37.6001C37.8132 38.3735 37.8132 39.6535 37.0399 40.4268L34.8532 42.6135L37.1199 44.8801C37.9199 45.6801 37.9199 46.9335 37.1199 47.7068Z" fill="#1053D5"/>
</svg>
