<svg width="52" height="52" viewBox="0 0 52 52" fill="none" xmlns="http://www.w3.org/2000/svg">
<path opacity="0.4" d="M41.9242 12.2632L28.2959 4.91825C26.8659 4.13825 25.1325 4.13825 23.6809 4.91825L10.0526 12.2632C9.05593 12.8048 8.44922 13.8665 8.44922 15.0365C8.44922 16.2065 9.05593 17.2681 10.0526 17.8098L23.6809 25.1548C24.3959 25.5448 25.1975 25.7399 25.9775 25.7399C26.7575 25.7399 27.5592 25.5448 28.2742 25.1548L41.9026 17.8098C42.8992 17.2681 43.5059 16.2065 43.5059 15.0365C43.5492 13.8665 42.9209 12.8048 41.9242 12.2632Z" fill="#1053D5"/>
<path opacity="0.4" d="M21.4492 27.7117L8.77422 21.3633C7.79922 20.865 6.67256 20.93 5.7409 21.4933C4.80923 22.0567 4.26758 23.0534 4.26758 24.1367V36.1183C4.26758 38.1983 5.41588 40.0617 7.27921 40.9933L19.9542 47.3201C20.3876 47.5368 20.8643 47.645 21.3409 47.645C21.9043 47.645 22.4676 47.4934 22.9659 47.1684C23.8976 46.6051 24.4392 45.6083 24.4392 44.525V32.5434C24.4609 30.5067 23.3126 28.6433 21.4492 27.7117Z" fill="#1053D5"/>
<path opacity="0.4" d="M47.7324 24.1585V34.1034C47.7107 34.0818 47.6891 34.0385 47.6674 34.0168C47.6674 33.9951 47.6458 33.9734 47.6241 33.9518C47.5374 33.8218 47.4291 33.6918 47.3207 33.5835C47.2991 33.5618 47.2774 33.5185 47.2557 33.4968C45.5007 31.5468 42.9224 30.3335 40.0841 30.3335C37.3541 30.3335 34.8624 31.4601 33.0857 33.2801C31.3741 35.0351 30.3341 37.4401 30.3341 40.0835C30.3341 41.9035 30.8541 43.6368 31.7424 45.1101C32.1107 45.7385 32.5658 46.3018 33.0641 46.8218L32.0458 47.3417C31.6124 47.5584 31.1357 47.6668 30.6591 47.6668C30.0957 47.6668 29.5324 47.5152 29.0124 47.1902C28.1024 46.6269 27.5391 45.6301 27.5391 44.5468V32.5867C27.5391 30.5067 28.6874 28.6434 30.5508 27.7117L43.2258 21.3851C44.2008 20.8868 45.3274 20.9301 46.2591 21.5151C47.1691 22.0784 47.7324 23.0752 47.7324 24.1585Z" fill="#1053D5"/>
<path d="M47.624 33.9516C45.8473 31.7633 43.139 30.3767 40.084 30.3767C37.7873 30.3767 35.664 31.1784 33.9957 32.5217C31.7423 34.2984 30.334 37.05 30.334 40.1267C30.334 41.9467 30.854 43.6801 31.7423 45.1534C32.3273 46.1284 33.064 46.9733 33.9307 47.6667H33.9523C35.6207 49.0533 37.7657 49.8767 40.084 49.8767C42.554 49.8767 44.7856 48.9667 46.4973 47.4501C47.2556 46.8001 47.9057 46.0201 48.4257 45.1534C49.314 43.6801 49.834 41.9467 49.834 40.1267C49.834 37.7867 49.0107 35.62 47.624 33.9516ZM44.9807 38.9134L39.7806 43.7233C39.4773 44.005 39.0657 44.1567 38.6757 44.1567C38.264 44.1567 37.8523 44.0049 37.5273 43.6799L35.1223 41.275C34.494 40.6466 34.494 39.6066 35.1223 38.9783C35.7506 38.35 36.7906 38.35 37.419 38.9783L38.719 40.2784L42.7706 36.53C43.4206 35.9233 44.4606 35.9667 45.0673 36.6167C45.6956 37.2884 45.6523 38.3067 44.9807 38.9134Z" fill="#1053D5"/>
</svg>
