<svg width="20" height="20" viewBox="0 0 20 20" fill="none" xmlns="http://www.w3.org/2000/svg">
<path d="M18.3077 15.275C18.3077 15.575 18.241 15.8833 18.0993 16.1833C17.9577 16.4833 17.7744 16.7667 17.5327 17.0333C17.1244 17.4833 16.6743 17.8083 16.166 18.0167C15.666 18.225 15.1244 18.3333 14.541 18.3333C13.691 18.3333 12.7827 18.1333 11.8243 17.725C10.866 17.3167 9.90768 16.7667 8.95768 16.075C7.99935 15.375 7.09102 14.6 6.22435 13.7417C5.36602 12.875 4.59102 11.9667 3.89935 11.0167C3.21602 10.0667 2.66602 9.11666 2.26602 8.17499C1.86602 7.22499 1.66602 6.31666 1.66602 5.44999C1.66602 4.88332 1.76602 4.34166 1.96602 3.84166C2.16602 3.33332 2.48268 2.86666 2.92435 2.44999C3.45768 1.92499 4.04102 1.66666 4.65768 1.66666C4.89102 1.66666 5.12435 1.71666 5.33268 1.81666C5.54935 1.91666 5.74102 2.06666 5.89102 2.28332L7.82435 5.00832C7.97435 5.21666 8.08268 5.40832 8.15768 5.59166C8.23268 5.76666 8.27435 5.94166 8.27435 6.09999C8.27435 6.29999 8.21602 6.49999 8.09935 6.69166C7.99102 6.88332 7.83268 7.08332 7.63268 7.28332L6.99935 7.94166C6.90768 8.03332 6.86602 8.14166 6.86602 8.27499C6.86602 8.34166 6.87435 8.39999 6.89102 8.46666C6.91602 8.53332 6.94102 8.58332 6.95768 8.63332C7.10768 8.90832 7.36602 9.26666 7.73268 9.69999C8.10768 10.1333 8.50768 10.575 8.94102 11.0167C9.39102 11.4583 9.82435 11.8667 10.266 12.2417C10.6993 12.6083 11.0577 12.8583 11.341 13.0083C11.3827 13.025 11.4327 13.05 11.491 13.075C11.5577 13.1 11.6243 13.1083 11.6993 13.1083C11.841 13.1083 11.9493 13.0583 12.041 12.9667L12.6743 12.3417C12.8827 12.1333 13.0827 11.975 13.2743 11.875C13.466 11.7583 13.6577 11.7 13.866 11.7C14.0243 11.7 14.191 11.7333 14.3743 11.8083C14.5577 11.8833 14.7494 11.9917 14.9577 12.1333L17.716 14.0917C17.9327 14.2417 18.0827 14.4167 18.1743 14.625C18.2577 14.8333 18.3077 15.0417 18.3077 15.275Z" stroke="#6A7686" stroke-width="2" stroke-miterlimit="10"/>
</svg>
