<svg width="32" height="32" viewBox="0 0 32 32" fill="none" xmlns="http://www.w3.org/2000/svg">
<path opacity="0.4" d="M29.3327 10.3599V11.9999H2.66602V10.0532C2.66602 6.99987 5.14602 4.5332 8.19935 4.5332H21.3327V7.95987C21.3327 9.6532 22.346 10.6665 24.0393 10.6665H27.9593C28.4927 10.6665 28.946 10.5732 29.3327 10.3599Z" fill="#00A48A"/>
<path d="M2.66602 12V21.9467C2.66602 25 5.14602 27.4667 8.19935 27.4667H23.7993C26.8527 27.4667 29.3327 25 29.3327 21.9467V12H2.66602ZM10.666 23H7.99935C7.45268 23 6.99935 22.5467 6.99935 22C6.99935 21.4533 7.45268 21 7.99935 21H10.666C11.2127 21 11.666 21.4533 11.666 22C11.666 22.5467 11.2127 23 10.666 23ZM19.3327 23H13.9993C13.4527 23 12.9993 22.5467 12.9993 22C12.9993 21.4533 13.4527 21 13.9993 21H19.3327C19.8793 21 20.3327 21.4533 20.3327 22C20.3327 22.5467 19.8793 23 19.3327 23Z" fill="#00A48A"/>
<path d="M27.9606 1.33301H24.0407C22.3473 1.33301 21.334 2.34634 21.334 4.03967V7.95967C21.334 9.65301 22.3473 10.6663 24.0407 10.6663H27.9606C29.654 10.6663 30.6673 9.65301 30.6673 7.95967V4.03967C30.6673 2.34634 29.654 1.33301 27.9606 1.33301ZM28.8406 4.59967L25.6807 8.29301C25.5607 8.43967 25.374 8.53301 25.1873 8.53301C25.174 8.53301 25.174 8.53301 25.1607 8.53301C24.974 8.53301 24.8007 8.46634 24.6673 8.33301L23.2007 6.89301C22.934 6.62634 22.934 6.18634 23.2007 5.91967C23.4673 5.65301 23.9073 5.63967 24.174 5.91967L25.1073 6.83967L27.774 3.71967C28.0273 3.42634 28.454 3.39967 28.7473 3.63967C29.054 3.87967 29.0806 4.31967 28.8406 4.59967Z" fill="#00A48A"/>
</svg>
