<svg width="32" height="32" viewBox="0 0 32 32" fill="none" xmlns="http://www.w3.org/2000/svg">
<path d="M27.9606 1.33301H24.0407C22.3473 1.33301 21.334 2.34634 21.334 4.03967V7.95967C21.334 9.65301 22.3473 10.6663 24.0407 10.6663H27.9606C29.654 10.6663 30.6673 9.65301 30.6673 7.95967V4.03967C30.6673 2.34634 29.654 1.33301 27.9606 1.33301ZM28.254 5.74634C28.094 5.90634 27.8807 5.98634 27.6673 5.98634C27.454 5.98634 27.2407 5.90634 27.0806 5.74634L26.8406 5.50634V8.49301C26.8406 8.95967 26.4673 9.33301 26.0007 9.33301C25.534 9.33301 25.1607 8.95967 25.1607 8.49301V5.50634L24.9207 5.74634C24.6007 6.06634 24.0673 6.06634 23.7473 5.74634C23.4273 5.42634 23.4273 4.89301 23.7473 4.57301L25.414 2.90634C25.4806 2.83967 25.574 2.78634 25.6673 2.74634C25.694 2.73301 25.7207 2.73301 25.7473 2.71967C25.814 2.69301 25.8807 2.67967 25.9606 2.67967C25.9873 2.67967 26.014 2.67967 26.0407 2.67967C26.134 2.67967 26.214 2.69301 26.3073 2.73301C26.3207 2.73301 26.3207 2.73301 26.334 2.73301C26.4273 2.77301 26.5073 2.82634 26.574 2.89301C26.5873 2.90634 26.5873 2.90634 26.6007 2.90634L28.2673 4.57301C28.5873 4.89301 28.5873 5.42634 28.254 5.74634Z" fill="#FF7020"/>
<path opacity="0.4" d="M29.3327 10.3599V11.9999H2.66602V10.0532C2.66602 6.99987 5.14602 4.5332 8.19935 4.5332H21.3327V7.95987C21.3327 9.6532 22.346 10.6665 24.0393 10.6665H27.9593C28.4927 10.6665 28.946 10.5732 29.3327 10.3599Z" fill="#FF7020"/>
<path d="M2.66602 12V21.9467C2.66602 25 5.14602 27.4667 8.19935 27.4667H23.7993C26.8527 27.4667 29.3327 25 29.3327 21.9467V12H2.66602ZM10.666 23H7.99935C7.45268 23 6.99935 22.5467 6.99935 22C6.99935 21.4533 7.45268 21 7.99935 21H10.666C11.2127 21 11.666 21.4533 11.666 22C11.666 22.5467 11.2127 23 10.666 23ZM19.3327 23H13.9993C13.4527 23 12.9993 22.5467 12.9993 22C12.9993 21.4533 13.4527 21 13.9993 21H19.3327C19.8793 21 20.3327 21.4533 20.3327 22C20.3327 22.5467 19.8793 23 19.3327 23Z" fill="#FF7020"/>
</svg>
