<svg width="36" height="36" viewBox="0 0 36 36" fill="none" xmlns="http://www.w3.org/2000/svg">
<path opacity="0.6" d="M9.31543 10.39H20.3701C23.2978 10.3901 25.6846 12.7778 25.6846 15.7054V17.0004H4V15.7054C4 12.7777 6.38771 10.39 9.31543 10.39Z" fill="#1053D5" stroke="#1053D5" stroke-width="2"/>
<path opacity="0.4" d="M25.6846 19V26.6846C25.6846 29.6122 23.2978 31.9999 20.3701 32H9.31543C6.38771 32 4 29.6123 4 26.6846V19H25.6846Z" fill="#1053D5" stroke="#1053D5" stroke-width="2"/>
<path d="M8.25 7.67999C7.635 7.67999 7.125 7.16999 7.125 6.55499V3.92999C7.125 3.31499 7.635 2.80499 8.25 2.80499C8.865 2.80499 9.375 3.31499 9.375 3.92999V6.55499C9.375 7.18499 8.865 7.67999 8.25 7.67999Z" fill="#1053D5"/>
<path d="M14.25 7.67999C13.635 7.67999 13.125 7.16999 13.125 6.55499V3.92999C13.125 3.31499 13.635 2.80499 14.25 2.80499C14.865 2.80499 15.375 3.31499 15.375 3.92999V6.55499C15.375 7.18499 14.865 7.67999 14.25 7.67999Z" fill="#1053D5"/>
<path d="M20.25 7.67999C19.635 7.67999 19.125 7.16999 19.125 6.55499V3.92999C19.125 3.31499 19.635 2.80499 20.25 2.80499C20.865 2.80499 21.375 3.31499 21.375 3.92999V6.55499C21.375 7.18499 20.865 7.67999 20.25 7.67999Z" fill="#1053D5"/>
<path d="M32.4746 21.48C32.4746 24.705 29.8646 27.315 26.6396 27.315V15.63C29.8496 15.63 32.4746 18.255 32.4746 21.48Z" fill="#1053D5"/>
</svg>
