<svg width="20" height="20" viewBox="0 0 20 20" fill="none" xmlns="http://www.w3.org/2000/svg">
<g clip-path="url(#clip0_1_2565)">
<path d="M3.1875 8.48359C3.1875 8.48359 4.4692 7.64385 5.0042 6.95066C5.62977 6.14011 6.59376 5.07705 6.59376 5.07705C6.59376 5.07705 8.37985 5.80849 9.99997 5.92859C11.4668 6.03732 11.9537 5.22986 13.4063 5.41773C15.511 5.68994 16.8129 8.48359 16.8129 8.48359" stroke="#6A7686" stroke-width="2" stroke-linecap="round" stroke-linejoin="round"/>
<path d="M16.8129 12.4657V9.74066V7.69685C16.8129 3.93431 13.7627 0.884171 10.0002 0.884171C6.23764 0.884171 3.1875 3.93431 3.1875 7.69685V11.7845C3.1875 15.547 6.23764 18.5972 10.0002 18.5972" stroke="#6A7686" stroke-width="2" stroke-linecap="round"/>
<path d="M16.8135 9.74098H17.1894C17.9487 9.74098 18.5642 10.3565 18.5642 11.1158C18.5642 11.8751 17.9487 12.4906 17.1894 12.4906H16.8135V9.74098Z" fill="#6A7686" stroke="#6A7686" stroke-width="2" stroke-linejoin="round"/>
<path d="M3.18848 9.74098H2.81252C2.05323 9.74098 1.43771 10.3565 1.43771 11.1158C1.43771 11.8751 2.05323 12.4906 2.81252 12.4906H3.18848V9.74098Z" fill="#6A7686" stroke="#6A7686" stroke-width="2" stroke-linejoin="round"/>
<rect x="-0.701424" y="0.701424" width="1.40285" height="1.40285" rx="0.701424" transform="matrix(-1 0 0 1 10.6821 17.1943)" fill="#6A7686" stroke="#6A7686" stroke-width="1.40285"/>
<circle cx="7.5" cy="10.1165" r="1.25" fill="#6A7686"/>
<circle cx="12.5" cy="10.1165" r="1.25" fill="#6A7686"/>
</g>
<defs>
<clipPath id="clip0_1_2565">
<rect width="20" height="20" fill="white"/>
</clipPath>
</defs>
</svg>
