<svg width="36" height="36" viewBox="0 0 36 36" fill="none" xmlns="http://www.w3.org/2000/svg">
<path opacity="0.4" d="M9 4H24C26.4071 4 27.5108 4.32523 28.0928 4.90723C28.6748 5.48922 29 6.59285 29 9V10.6143C28.9095 10.6122 28.8174 10.6104 28.7246 10.6104H22.3047C20.6455 10.6104 19.2212 10.8725 18.2568 11.8369C17.2924 12.8013 17.0303 14.2256 17.0303 15.8848V22.5498H13.625V29.875H17.085C17.0935 29.9594 17.1045 30.0427 17.1152 30.125H7.4248C7.39872 30.1249 7.36737 30.1144 7.33887 30.0859C7.31037 30.0574 7.2998 30.0261 7.2998 30C7.2998 29.9739 7.31037 29.9426 7.33887 29.9141C7.36737 29.8856 7.39872 29.8751 7.4248 29.875H13.375V22.5498H9C6.64863 22.5498 5.53646 22.2387 4.94238 21.6777C4.40039 21.166 4.06599 20.2288 4.00781 18.25L4 17.8398V9C4 6.59285 4.32523 5.48922 4.90723 4.90723C5.48922 4.32523 6.59285 4 9 4Z" fill="#1053D5" stroke="#1053D5" stroke-width="2"/>
<path d="M30.0003 11.685C29.6253 11.64 29.1903 11.61 28.7253 11.61H22.3053C19.0953 11.61 18.0303 12.675 18.0303 15.885V28.875C18.0453 29.805 18.1503 30.54 18.3753 31.125C18.9003 32.49 20.0853 33 22.3053 33H28.7253C31.9353 33 33.0003 31.935 33.0003 28.725V15.885C33.0003 13.14 32.2203 11.97 30.0003 11.685ZM25.5153 15.135C26.8203 15.135 27.8703 16.185 27.8703 17.49C27.8703 18.795 26.8203 19.845 25.5153 19.845C24.2103 19.845 23.1603 18.795 23.1603 17.49C23.1603 16.185 24.2103 15.135 25.5153 15.135ZM25.5153 28.725C23.7453 28.725 22.3053 27.285 22.3053 25.515C22.3053 24.78 22.5603 24.09 22.9803 23.55C23.5653 22.8 24.4803 22.305 25.5153 22.305C26.3253 22.305 27.0603 22.605 27.6153 23.085C28.2903 23.685 28.7253 24.555 28.7253 25.515C28.7253 27.285 27.2853 28.725 25.5153 28.725Z" fill="#1053D5"/>
<path opacity="0.4" d="M28.7247 25.515C28.7247 27.285 27.2847 28.725 25.5147 28.725C23.7447 28.725 22.3047 27.285 22.3047 25.515C22.3047 24.78 22.5597 24.09 22.9797 23.55C23.5647 22.8 24.4797 22.305 25.5147 22.305C26.3247 22.305 27.0597 22.605 27.6147 23.085C28.2897 23.685 28.7247 24.555 28.7247 25.515Z" fill="#1053D5"/>
<path opacity="0.4" d="M25.5152 19.8449C26.8158 19.8449 27.8701 18.7906 27.8701 17.4899C27.8701 16.1893 26.8158 15.135 25.5152 15.135C24.2145 15.135 23.1602 16.1893 23.1602 17.4899C23.1602 18.7906 24.2145 19.8449 25.5152 19.8449Z" fill="#1053D5"/>
</svg>
