<svg width="36" height="36" viewBox="0 0 36 36" fill="none" xmlns="http://www.w3.org/2000/svg">
<path opacity="0.4" d="M17.9102 9.18994H18.0918C24.766 9.17609 30.1699 14.5904 30.1699 21.27V25.6802C30.1698 26.7778 29.2676 27.6802 28.1699 27.6802H7.83008C6.73243 27.6802 5.83019 26.7778 5.83008 25.6802V21.27C5.83008 14.5923 11.2324 9.18994 17.9102 9.18994Z" fill="#1053D5" stroke="#1053D5" stroke-width="2"/>
<path d="M19.125 3.79498V8.23498C18.78 8.20498 18.435 8.18998 18.09 8.18998H17.91C17.565 8.18998 17.22 8.20498 16.875 8.23498V3.79498C16.875 3.17998 17.385 2.66998 18 2.66998C18.615 2.66998 19.125 3.17998 19.125 3.79498Z" fill="#1053D5"/>
<path d="M22.9796 28.665C22.7996 31.275 20.6395 33.33 17.9995 33.33C15.3595 33.33 13.1845 31.275 13.0195 28.665H22.9796Z" fill="#1053D5"/>
</svg>
