<svg width="39" height="32" viewBox="0 0 39 32" fill="none" xmlns="http://www.w3.org/2000/svg">
<path d="M12.2794 2.56089C12.6472 1.98742 13.2816 1.64062 13.9629 1.64062H25.6546C27.2359 1.64062 28.1918 3.38923 27.3381 4.72036L17.8141 19.5699C17.4463 20.1434 16.8119 20.4902 16.1306 20.4902H4.439C2.85762 20.4902 1.90176 18.7416 2.75549 17.4105L12.2794 2.56089Z" fill="#1053D5"/>
<path d="M14.683 22.2381C14.0017 22.2381 13.3673 22.5849 12.9995 23.1584L10.8824 26.4593C10.0287 27.7904 10.9846 29.539 12.5659 29.539H25.0376C25.7189 29.539 26.3533 29.1922 26.7211 28.6187L36.245 13.7692C37.0988 12.4381 36.1429 10.6895 34.5615 10.6895H26.6014C25.9201 10.6895 25.2857 11.0363 24.9179 11.6097L18.6915 21.3178C18.3237 21.8913 17.6892 22.2381 17.008 22.2381H14.683Z" fill="#FF7020"/>
</svg>
