<svg width="36" height="36" viewBox="0 0 36 36" fill="none" xmlns="http://www.w3.org/2000/svg">
<path opacity="0.4" d="M11.6396 4H24.3604C26.3555 4.00004 27.4189 4.37153 28.0215 4.98047C28.6271 5.59244 29 6.67838 29 8.71484V27.2852C29 29.3215 28.6271 30.4067 28.0205 31.0186C27.4162 31.628 26.3484 32 24.3447 32H11.6396C9.6445 32 8.58114 31.6285 7.97852 31.0195C7.37291 30.4076 7.00002 29.3216 7 27.2852V8.71484C7.00002 6.67838 7.37291 5.59244 7.97852 4.98047C8.58114 4.37153 9.6445 4.00004 11.6396 4Z" fill="#1053D5" stroke="#1053D5" stroke-width="2"/>
<path d="M15 8.125H21C21.0261 8.125 21.0574 8.13548 21.0859 8.16406C21.1145 8.19264 21.125 8.22387 21.125 8.25C21.125 8.27613 21.1145 8.30736 21.0859 8.33594C21.0574 8.36452 21.0261 8.375 21 8.375H15C14.9739 8.375 14.9426 8.36452 14.9141 8.33594C14.8855 8.30736 14.875 8.27613 14.875 8.25C14.875 8.22387 14.8855 8.19264 14.9141 8.16406C14.9426 8.13548 14.9739 8.125 15 8.125Z" fill="#1053D5" stroke="#1053D5" stroke-width="2"/>
<path d="M18 28.95C19.4497 28.95 20.625 27.7748 20.625 26.325C20.625 24.8753 19.4497 23.7 18 23.7C16.5503 23.7 15.375 24.8753 15.375 26.325C15.375 27.7748 16.5503 28.95 18 28.95Z" fill="#1053D5"/>
</svg>
