<svg width="52" height="52" viewBox="0 0 52 52" fill="none" xmlns="http://www.w3.org/2000/svg">
<path opacity="0.4" d="M43.3346 17.8747V38.9997C43.3346 45.4997 39.4563 47.6663 34.668 47.6663H17.3346C12.5463 47.6663 8.66797 45.4997 8.66797 38.9997V17.8747C8.66797 10.833 12.5463 9.20801 17.3346 9.20801C17.3346 10.5513 17.8762 11.7647 18.7646 12.653C19.6529 13.5413 20.8663 14.083 22.2096 14.083H29.793C32.4796 14.083 34.668 11.8947 34.668 9.20801C39.4563 9.20801 43.3346 10.833 43.3346 17.8747Z" fill="#6A7686"/>
<path d="M34.6654 9.20801C34.6654 11.8947 32.477 14.083 29.7904 14.083H22.207C20.8637 14.083 19.6503 13.5413 18.762 12.653C17.8736 11.7647 17.332 10.5513 17.332 9.20801C17.332 6.52134 19.5204 4.33301 22.207 4.33301H29.7904C31.1337 4.33301 32.3471 4.87468 33.2354 5.76302C34.1238 6.65135 34.6654 7.86467 34.6654 9.20801Z" fill="#6A7686"/>
<path d="M25.9987 29.792H17.332C16.4437 29.792 15.707 29.0553 15.707 28.167C15.707 27.2787 16.4437 26.542 17.332 26.542H25.9987C26.887 26.542 27.6237 27.2787 27.6237 28.167C27.6237 29.0553 26.887 29.792 25.9987 29.792Z" fill="#6A7686"/>
<path d="M34.6654 38.458H17.332C16.4437 38.458 15.707 37.7213 15.707 36.833C15.707 35.9447 16.4437 35.208 17.332 35.208H34.6654C35.5537 35.208 36.2904 35.9447 36.2904 36.833C36.2904 37.7213 35.5537 38.458 34.6654 38.458Z" fill="#6A7686"/>
</svg>
