<svg width="36" height="36" viewBox="0 0 36 36" fill="none" xmlns="http://www.w3.org/2000/svg">
<path d="M27.8092 6.18001L19.5592 3.09001C18.7042 2.77501 17.3092 2.77501 16.4542 3.09001L8.20422 6.18001C6.61422 6.78001 5.32422 8.64001 5.32422 10.335V22.485C5.32422 23.7 6.11922 25.305 7.09422 26.025L15.3442 32.19C16.7992 33.285 19.1842 33.285 20.6392 32.19L28.8892 26.025C29.8642 25.29 30.6592 23.7 30.6592 22.485V10.335C30.6742 8.64001 29.3842 6.78001 27.8092 6.18001ZM23.2192 14.58L16.7692 21.03C16.5442 21.255 16.2592 21.36 15.9742 21.36C15.6892 21.36 15.4042 21.255 15.1792 21.03L12.7792 18.6C12.3442 18.165 12.3442 17.445 12.7792 17.01C13.2142 16.575 13.9342 16.575 14.3692 17.01L15.9892 18.63L21.6442 12.975C22.0792 12.54 22.7992 12.54 23.2342 12.975C23.6692 13.41 23.6692 14.145 23.2192 14.58Z" fill="white"/>
</svg>
