<svg width="52" height="52" viewBox="0 0 52 52" fill="none" xmlns="http://www.w3.org/2000/svg">
<path d="M45.5214 24.3096V34.0379C45.5214 43.7662 41.643 47.6663 31.893 47.6663H20.2148C18.9581 47.6663 17.8097 47.6014 16.748 47.4497" stroke="#6A7686" stroke-width="4" stroke-linecap="round" stroke-linejoin="round"/>
<path d="M6.58594 33.6263V24.3096" stroke="#6A7686" stroke-width="4" stroke-linecap="round" stroke-linejoin="round"/>
<path d="M26.0642 25.9997C30.0292 25.9997 32.9542 22.7715 32.5642 18.8065L31.1124 4.33301H20.9941L19.5425 18.8065C19.1525 22.7715 22.0992 25.9997 26.0642 25.9997Z" stroke="#6A7686" stroke-width="4" stroke-linecap="round" stroke-linejoin="round"/>
<path d="M39.7157 25.9997C44.0924 25.9997 47.299 22.4463 46.8657 18.0913L46.2589 12.133C45.4789 6.49962 43.3123 4.33301 37.6357 4.33301H31.0273L32.544 19.5214C32.934 23.0964 36.1407 25.9997 39.7157 25.9997Z" stroke="#6A7686" stroke-width="4" stroke-linecap="round" stroke-linejoin="round"/>
<path d="M12.2849 25.9997C15.8599 25.9997 19.0882 23.0964 19.4349 19.5214L19.9116 14.7331L20.9515 4.33301H14.3432C8.66657 4.33301 6.49995 6.49962 5.71995 12.133L5.11322 18.0913C4.67988 22.4463 7.90821 25.9997 12.2849 25.9997Z" stroke="#6A7686" stroke-width="4" stroke-linecap="round" stroke-linejoin="round"/>
<path d="M19.4993 41.1667C19.4993 42.7917 19.0443 44.3301 18.2426 45.6301C17.831 46.3235 17.3326 46.9517 16.7476 47.4501C16.6826 47.5367 16.6177 47.6017 16.531 47.6667C15.0144 49.0317 13.021 49.8333 10.8327 49.8333C8.18935 49.8333 5.82762 48.6416 4.26762 46.7783C4.22429 46.7133 4.1594 46.67 4.11607 46.605C3.85607 46.3017 3.61772 45.9768 3.42272 45.6301C2.62105 44.3301 2.16602 42.7917 2.16602 41.1667C2.16602 38.4367 3.42268 35.9883 5.41602 34.4067C5.78435 34.1033 6.1743 33.8434 6.58597 33.6267C7.84263 32.9117 9.29435 32.5 10.8327 32.5C12.9993 32.5 14.9493 33.2799 16.466 34.6016C16.726 34.7966 16.9643 35.0351 17.181 35.2734C18.611 36.8334 19.4993 38.8917 19.4993 41.1667Z" stroke="#6A7686" stroke-width="4" stroke-miterlimit="10" stroke-linecap="round" stroke-linejoin="round"/>
<path d="M14.0621 41.123H7.60547" stroke="#6A7686" stroke-width="4" stroke-miterlimit="10" stroke-linecap="round" stroke-linejoin="round"/>
</svg>
