<svg width="41" height="32" viewBox="0 0 41 32" fill="none" xmlns="http://www.w3.org/2000/svg">
<path d="M12.935 2.52293C13.3068 1.97156 13.9283 1.64103 14.5933 1.64103H27.0559C28.6581 1.64103 29.6099 3.43073 28.7142 4.75912L18.7019 19.6087C18.3301 20.1601 17.7086 20.4906 17.0436 20.4906H4.58096C2.97883 20.4906 2.02702 18.7009 2.92269 17.3725L12.935 2.52293Z" fill="#1053D5"/>
<path d="M15.3496 22.2375C14.6846 22.2375 14.063 22.5681 13.6913 23.1195L11.4656 26.4204C10.57 27.7488 11.5218 29.5385 13.1239 29.5385H26.4065C27.0715 29.5385 27.6931 29.2079 28.0648 28.6566L38.0772 13.807C38.9728 12.4786 38.021 10.6889 36.4189 10.6889H27.8791C27.2141 10.6889 26.5926 11.0194 26.2209 11.5708L19.6234 21.3556C19.2516 21.907 18.6301 22.2375 17.9651 22.2375H15.3496Z" fill="#FF7020"/>
</svg>