<svg width="32" height="32" viewBox="0 0 32 32" fill="none" xmlns="http://www.w3.org/2000/svg">
<path opacity="0.4" d="M28.4003 14.4533C28.9203 14.4533 29.3337 14.04 29.3337 13.52V12.28C29.3337 6.81333 27.667 5.14667 22.2003 5.14667H9.80032C4.33366 5.14667 2.66699 6.81333 2.66699 12.28V12.9067C2.66699 13.4267 3.08033 13.84 3.60033 13.84C4.80033 13.84 5.77366 14.8133 5.77366 16.0133C5.77366 17.2133 4.80033 18.1733 3.60033 18.1733C3.08033 18.1733 2.66699 18.5867 2.66699 19.1067V19.7333C2.66699 25.2 4.33366 26.8667 9.80032 26.8667H22.2003C27.667 26.8667 29.3337 25.2 29.3337 19.7333C29.3337 19.2133 28.9203 18.8 28.4003 18.8C27.2003 18.8 26.227 17.8267 26.227 16.6267C26.227 15.4267 27.2003 14.4533 28.4003 14.4533Z" fill="white"/>
<path d="M20 21.1733C19.2533 21.1733 18.6533 20.5733 18.6533 19.84C18.6533 19.1067 19.2533 18.5067 19.9867 18.5067C20.72 18.5067 21.32 19.1067 21.32 19.84C21.32 20.5733 20.7467 21.1733 20 21.1733Z" fill="white"/>
<path d="M12 14.5067C11.2533 14.5067 10.6533 13.9067 10.6533 13.1733C10.6533 12.44 11.2533 11.84 11.9867 11.84C12.72 11.84 13.32 12.44 13.32 13.1733C13.32 13.9067 12.7467 14.5067 12 14.5067Z" fill="white"/>
<path d="M11.5064 21.9067C11.2531 21.9067 10.9998 21.8133 10.7998 21.6133C10.4131 21.2267 10.4131 20.5867 10.7998 20.2L19.7731 11.2267C20.1598 10.84 20.7998 10.84 21.1864 11.2267C21.5731 11.6133 21.5731 12.2533 21.1864 12.64L12.2131 21.6133C12.0264 21.8133 11.7598 21.9067 11.5064 21.9067Z" fill="white"/>
</svg>
