<svg width="36" height="36" viewBox="0 0 36 36" fill="none" xmlns="http://www.w3.org/2000/svg">
<path opacity="0.4" d="M18 3.91748C18.1096 3.91748 18.3157 3.97233 18.5303 4.27881L18.5361 4.28564L24.791 13.0464L24.793 13.0483C24.9899 13.3223 25.0713 13.5342 25.0977 13.6714C25.1224 13.8004 25.0974 13.8499 25.0928 13.8589C25.088 13.8681 25.0616 13.9184 24.9404 13.9741C24.8122 14.0331 24.5917 14.0903 24.2549 14.0903H11.7451C11.4083 14.0903 11.1878 14.0331 11.0596 13.9741C10.9384 13.9184 10.912 13.8681 10.9072 13.8589C10.9026 13.8499 10.8776 13.8004 10.9023 13.6714C10.9287 13.5342 11.0101 13.3223 11.207 13.0483L11.209 13.0464L17.4639 4.28564L17.4697 4.27881C17.6843 3.97233 17.8904 3.91748 18 3.91748Z" fill="#1053D5" stroke="#1053D5" stroke-width="2"/>
<path d="M26.3854 27H9.61538C7.24538 27 6.43538 25.425 7.83038 23.505L13.8154 15.09H22.1854L28.1704 23.505C29.5654 25.425 28.7554 27 26.3854 27Z" fill="#1053D5"/>
<path d="M19.125 27V33C19.125 33.615 18.615 34.125 18 34.125C17.385 34.125 16.875 33.615 16.875 33V27H19.125Z" fill="#1053D5"/>
</svg>
