<svg width="36" height="36" viewBox="0 0 36 36" fill="none" xmlns="http://www.w3.org/2000/svg">
<path d="M32.25 23.25C32.67 23.25 33 23.58 33 24V25.5C33 27.99 30.99 30 28.5 30C28.5 27.525 26.475 25.5 24 25.5C21.525 25.5 19.5 27.525 19.5 30H16.5C16.5 27.525 14.475 25.5 12 25.5C9.525 25.5 7.5 27.525 7.5 30C5.01 30 3 27.99 3 25.5V22.5C3 21.675 3.675 21 4.5 21H18.75C20.82 21 22.5 19.32 22.5 17.25V9C22.5 8.175 23.175 7.5 24 7.5H25.26C26.34 7.5 27.33 8.085 27.87 9.015L28.83 10.695C28.965 10.935 28.785 11.25 28.5 11.25C26.43 11.25 24.75 12.93 24.75 15V19.5C24.75 21.57 26.43 23.25 28.5 23.25H32.25Z" fill="white"/>
<path d="M12 33C13.6569 33 15 31.6569 15 30C15 28.3431 13.6569 27 12 27C10.3431 27 9 28.3431 9 30C9 31.6569 10.3431 33 12 33Z" fill="white"/>
<path d="M24 33C25.6569 33 27 31.6569 27 30C27 28.3431 25.6569 27 24 27C22.3431 27 21 28.3431 21 30C21 31.6569 22.3431 33 24 33Z" fill="white"/>
<path d="M33 18.795V21H28.5C27.675 21 27 20.325 27 19.5V15C27 14.175 27.675 13.5 28.5 13.5H30.435L32.61 17.31C32.865 17.76 33 18.27 33 18.795Z" fill="white"/>
<path d="M19.62 3H8.535C5.85 3 3.6 4.92 3.105 7.47H9.66C10.23 7.47 10.68 7.935 10.68 8.505C10.68 9.075 10.23 9.525 9.66 9.525H3V11.595H6.9C7.47 11.595 7.935 12.06 7.935 12.63C7.935 13.2 7.47 13.65 6.9 13.65H3V15.72H4.155C4.725 15.72 5.19 16.185 5.19 16.755C5.19 17.325 4.725 17.775 4.155 17.775H3V18.12C3 18.945 3.675 19.62 4.5 19.62H18.225C19.755 19.62 21 18.375 21 16.845V4.38C21 3.615 20.385 3 19.62 3Z" fill="white"/>
<path d="M3.105 7.47H2.88H1.41C0.84 7.47 0.375 7.935 0.375 8.505C0.375 9.075 0.84 9.525 1.41 9.525H2.775H3V8.535C3 8.175 3.045 7.815 3.105 7.47Z" fill="white"/>
<path d="M2.775 11.595H1.41C0.84 11.595 0.375 12.06 0.375 12.63C0.375 13.2 0.84 13.65 1.41 13.65H2.775H3V11.595H2.775Z" fill="white"/>
<path d="M2.775 15.72H1.41C0.84 15.72 0.375 16.185 0.375 16.755C0.375 17.325 0.84 17.775 1.41 17.775H2.775H3V15.72H2.775Z" fill="white"/>
</svg>