<svg width="20" height="20" viewBox="0 0 20 20" fill="none" xmlns="http://www.w3.org/2000/svg">
<path d="M10.832 9.29199H5.83203" stroke="#6A7686" stroke-width="2" stroke-linecap="round" stroke-linejoin="round"/>
<path d="M1.66797 9.29121V5.44121C1.66797 3.74121 3.04297 2.36621 4.74297 2.36621H9.4263C11.1263 2.36621 12.5013 3.42454 12.5013 5.12454" stroke="#6A7686" stroke-width="2" stroke-linecap="round" stroke-linejoin="round"/>
<path d="M14.568 10.1667C14.1513 10.5667 13.9513 11.1833 14.118 11.8166C14.3263 12.5916 15.093 13.0833 15.893 13.0833H16.668V14.2917C16.668 16.1333 15.1763 17.625 13.3346 17.625H5.0013C3.15964 17.625 1.66797 16.1333 1.66797 14.2917V8.45833C1.66797 6.61667 3.15964 5.125 5.0013 5.125H13.3346C15.168 5.125 16.668 6.625 16.668 8.45833V9.66663H15.768C15.3013 9.66663 14.8763 9.84999 14.568 10.1667Z" stroke="#6A7686" stroke-width="2" stroke-linecap="round" stroke-linejoin="round"/>
<path d="M18.3329 10.517V12.2337C18.3329 12.7003 17.9495 13.0837 17.4745 13.0837H15.8662C14.9662 13.0837 14.1412 12.4254 14.0662 11.5254C14.0162 11.0004 14.2162 10.5087 14.5662 10.167C14.8745 9.85036 15.2995 9.66699 15.7662 9.66699H17.4745C17.9495 9.66699 18.3329 10.0503 18.3329 10.517Z" stroke="#6A7686" stroke-width="2" stroke-linecap="round" stroke-linejoin="round"/>
</svg>
