<svg width="36" height="36" viewBox="0 0 36 36" fill="none" xmlns="http://www.w3.org/2000/svg">
<path opacity="0.4" d="M25.7695 8.875C26.9537 8.875 28.103 9.10537 28.9385 9.74023C29.7221 10.3358 30.3945 11.4142 30.3945 13.5V22.5C30.3945 24.5858 29.7221 25.6642 28.9385 26.2598C28.103 26.8946 26.9537 27.125 25.7695 27.125C24.5854 27.125 23.4361 26.8946 22.6006 26.2598C21.8169 25.6642 21.1445 24.5858 21.1445 22.5V13.5C21.1445 11.4142 21.8169 10.3358 22.6006 9.74023C23.4361 9.10537 24.5854 8.875 25.7695 8.875Z" fill="#1053D5" stroke="#1053D5" stroke-width="2"/>
<path opacity="0.4" d="M10.2305 8.875C11.4146 8.875 12.5639 9.10537 13.3994 9.74023C14.1831 10.3358 14.8555 11.4142 14.8555 13.5V22.5C14.8555 24.5858 14.1831 25.6642 13.3994 26.2598C12.5639 26.8946 11.4146 27.125 10.2305 27.125C9.04632 27.125 7.89701 26.8946 7.06152 26.2598C6.27786 25.6642 5.60547 24.5858 5.60547 22.5V13.5C5.60547 11.4142 6.27786 10.3358 7.06152 9.74023C7.89701 9.10537 9.04632 8.875 10.2305 8.875Z" fill="#1053D5" stroke="#1053D5" stroke-width="2"/>
<path d="M20.1455 16.875H15.8555V19.125H20.1455V16.875Z" fill="#1053D5"/>
<path d="M33.75 22.875C33.135 22.875 32.625 22.365 32.625 21.75V14.25C32.625 13.635 33.135 13.125 33.75 13.125C34.365 13.125 34.875 13.635 34.875 14.25V21.75C34.875 22.365 34.365 22.875 33.75 22.875Z" fill="#1053D5"/>
<path d="M2.25 22.875C1.635 22.875 1.125 22.365 1.125 21.75V14.25C1.125 13.635 1.635 13.125 2.25 13.125C2.865 13.125 3.375 13.635 3.375 14.25V21.75C3.375 22.365 2.865 22.875 2.25 22.875Z" fill="#1053D5"/>
</svg>
